PathFileType	3	(X/Y/Z)	D:\Jess\PFP\Labelled\PA07\20250627\SRRun01.trc
DataRate	CameraRate	NumFrames	NumMarkers	Units	OrigDataRate	OrigDataStartFrame	OrigNumFrames
250.0	250.0	4	37	mm	250.0	36875	2501
Frame#	Time	C7			T10			CLAV			LSHO			RSHO			LASIS			RASIS			LPSIS			RPSIS			LILCR			RILCR			LGTR			LTHI			LLTHI			LLEP			LMEP			LPSH			LLSH			LDSH			LLMAL			LMMAL			LTOE			L5TH			LHEE			RGTR			RTHI			RLTHI			RLEP			RMEP			RPSH			RLSH			RDSH			RLMAL			RMMAL			RTOE			R5TH			RHEE			
		X1	Y1	Z1	X2	Y2	Z2	X3	Y3	Z3	X4	Y4	Z4	X5	Y5	Z5	X6	Y6	Z6	X7	Y7	Z7	X8	Y8	Z8	X9	Y9	Z9	X10	Y10	Z10	X11	Y11	Z11	X12	Y12	Z12	X13	Y13	Z13	X14	Y14	Z14	X15	Y15	Z15	X16	Y16	Z16	X17	Y17	Z17	X18	Y18	Z18	X19	Y19	Z19	X20	Y20	Z20	X21	Y21	Z21	X22	Y22	Z22	X23	Y23	Z23	X24	Y24	Z24	X25	Y25	Z25	X26	Y26	Z26	X27	Y27	Z27	X28	Y28	Z28	X29	Y29	Z29	X30	Y30	Z30	X31	Y31	Z31	X32	Y32	Z32	X33	Y33	Z33	X34	Y34	Z34	X35	Y35	Z35	X36	Y36	Z36	X37	Y37	Z37	

1876	147.496	815.5889545126879	1460.283843833858	-812.0335995152045	826.2172094449978	1192.901379315226	-747.3568139864102	784.8674033136301	1346.389086348978	-947.6072530748255	644.571628812148	1442.731425232511	-832.0821795263686	957.9879517636391	1423.967401903633	-903.5689639258278	693.3375762442971	957.5275594193723	-872.1596249105702	897.0585549409651	942.5187711544224	-891.3214581982007	793.7056806164054	1022.937233898262	-724.8960857534391	835.3778920225045	1018.678713960838	-729.7101363432054	652.6855226268079	1035.664402585363	-829.271099926541	952.3072619041043	1033.94425215806	-853.334500616582	633.0240809088604	866.4717345460458	-826.4125760755369	697.611809461265	760.070610630994	-970.5216279192853	638.0700266283521	678.3660715808793	-924.7375489610157	656.9449127605919	558.7520623078178	-955.0428714962338	nan	nan	nan	702.4340669968503	448.3808169091567	-973.2359945550987	649.8369274670927	404.51372280545	-840.8133986947498	703.6868759025323	308.6981050296557	-847.3733249834464	683.4362497825108	247.2677623090333	-742.4764402952168	nan	nan	nan	674.152972115747	131.3541617084358	-843.6959204891862	640.8199751924607	119.3655895614487	-804.8522594720298	748.7965075133282	260.3681367272524	-671.3584330879355	975.9253463309544	842.4579726794028	-792.760134357157	881.6238010261964	674.0413399891032	-825.9010214403709	943.17619207369	634.9705862605722	-728.0350713097901	927.9384834249954	521.765047304069	-656.8308856895762	nan	nan	nan	867.6966284827847	419.9585329467406	-662.77943615449	916.8020066796074	338.4187084903288	-552.1082773922045	849.8529162185851	253.0649656454835	-557.2867662741409	875.6601391592646	182.2271539698312	-474.3960672404573	nan	nan	nan	834.6907210294842	65.41183232844382	-562.3821771596938	874.9036127726341	48.73717186149791	-533.1675757352764	834.9024913579717	215.4818603701968	-395.0870712604254	
1877	147.5	814.9983678624335	1462.495490932186	-812.3016776196988	826.4626749161406	1194.835215860107	-747.9470554731438	784.2127057260312	1348.700528787508	-947.7789540102897	644.7188155779986	1444.879890317981	-832.1609749275945	957.1992478970661	1426.294047736013	-904.1848471021398	693.1674126095905	959.9096987233268	-872.6643041875056	896.5493420662035	944.2318174853455	-891.9453213548405	793.7373156119696	1025.544451917329	-725.6534147430083	835.3657492434252	1021.150154184064	-730.5847746367562	652.4546847451733	1038.411833115506	-829.8496011712585	951.7948820585394	1036.025947778597	-854.5285969262488	632.8698760688337	869.7554751382612	-826.884572267354	697.5299535787723	763.2625159963136	-970.9175879754274	638.1566731988004	681.09354610474	-924.8305934152914	656.724778521848	560.7086053159055	-955.0852441167491	nan	nan	nan	701.8720743460752	450.3170767054581	-976.4225557348317	649.632071299805	401.6339179875615	-845.6225876833045	703.483079099878	306.139721604578	-855.73193085198	683.5365874950553	240.8488278343688	-753.1540769803599	nan	nan	nan	673.8415589032079	129.0657211232805	-858.7642685219889	640.5972191378386	115.6121319580424	-820.2876039215423	749.1504227214949	251.142244446965	-681.7541006572504	975.7820357306205	844.8407873242055	-792.0859403279976	882.8593070213208	675.4128981888761	-823.2189813976759	944.1971161257034	638.0244709173177	-724.4660728671774	928.7488436011769	525.5642104409259	-652.0519207945264	nan	nan	nan	868.9623758097463	423.3851873225049	-657.7686628335775	917.809807883957	342.6155992016637	-546.3625778742908	851.1614014978398	256.7137442850629	-551.7171485145624	876.6399821322733	186.3254463524012	-468.4191922564046	nan	nan	nan	835.6192530739384	66.85516951184755	-553.4418820804559	875.3175285070894	50.35846869884859	-523.310848787135	835.8177908681712	221.8836526424641	-390.5699578347598	
1878	147.504	814.3943970217416	1464.57347906591	-812.5556418826264	826.652495253313	1196.650969158492	-748.5157466125808	783.587661743421	1350.86369445589	-947.9593511036662	644.8562734220889	1446.89674706183	-832.2830429367082	956.4259121611467	1428.482061825137	-904.7383888505981	692.9915490284218	962.0930356508069	-873.1201515624733	896.0583289622386	945.8460071023686	-892.5324225469413	793.7786679061966	1028.002731167398	-726.3804125391481	835.3686595600336	1023.49504822764	-731.4247288507349	652.2303135698346	1040.950676945282	-830.3945042755159	951.306386200831	1037.958001563412	-855.7131855154981	632.7450642410956	872.7695948612381	-827.2573729800674	697.3317230074443	766.084234857803	-971.2304845227961	638.3112177059741	683.4597258711452	-924.6163497824009	656.5190803342352	562.3216224687104	-954.8242023580591	nan	nan	nan	701.3511921257967	452.0087454416593	-979.2966403736795	649.4217933047261	398.5348421745346	-850.3514810223503	703.2996557055208	303.5187159659258	-863.9849827000528	683.6211481989696	234.4268056303995	-763.9160624559188	nan	nan	nan	673.6212517972532	127.0014085127905	-873.7802889904814	640.4428566654486	112.0883735446331	-835.7646906113973	749.4321004457397	241.8837436377043	-692.3293595992119	975.6681467340476	847.1446066249835	-791.4518799773593	884.0858760239041	676.7589060216898	-820.7931097608158	945.1258670653804	640.9398954783321	-721.2024794865922	929.4399028677637	529.1614242323361	-647.7361835232639	nan	nan	nan	870.0999878848592	426.6119430580678	-653.1348016222089	918.7214565924457	346.7262329412408	-540.9265432637764	852.4089955630262	260.3037252200606	-546.2950487659649	877.5862955959705	190.4966504863365	-462.4936108095471	nan	nan	nan	836.6510933955961	68.48813072945565	-544.5272628765266	875.8055484476611	52.21732490844403	-513.461752447647	836.6432634468204	228.2995855371003	-386.1539482517924	
1879	147.508	813.7812776696758	1466.51136575373	-812.7956930137335	826.7862889801906	1198.343797654809	-749.0582715227251	782.9915673918802	1352.870399490055	-948.1507999000597	644.9804183834937	1448.774323773014	-832.4423327722784	955.6706556730966	1430.525350912197	-905.2331476783513	692.8162175918499	964.0696362869412	-873.5256776500624	895.5937052882318	947.3580221073053	-893.0754022716017	793.8285818785671	1030.299038768414	-727.0687821558679	835.3859388789245	1025.701657747599	-732.2203725045603	652.0180561683297	1043.265428782311	-830.9052185751964	950.8434752562993	1039.735812437697	-856.884235579438	632.646310003193	875.4944903322944	-827.5340099459139	697.0212543069168	768.5127970609761	-971.453183972553	638.5275969585892	685.4541639851467	-924.1009926960827	656.3284733532179	563.5862324758493	-954.2686212273718	nan	nan	nan	700.8835062138651	453.4517959011173	-981.8530264096386	649.2048798864316	395.2314585467479	-854.9963673507365	703.1411092210489	300.8500781053936	-872.1145864252173	683.6849209343801	228.0270601557846	-774.744655272902	nan	nan	nan	673.5077190702629	125.1856498810134	-888.7172723991558	640.3717056797419	108.8182430672624	-851.2654290487665	749.6254022092594	232.6185944302563	-703.059996482344	975.58058974466	849.3549534889204	-790.8604588003226	885.2754858075348	678.0714026246789	-818.6489406726319	945.9441560134001	643.6909361838345	-718.2701161107902	930.006438326078	532.5301690011569	-643.8982428002502	nan	nan	nan	871.1059943555994	429.6145534379948	-648.8754712340894	919.5299356780415	350.7432301899225	-535.791677805846	853.589652098934	263.8316438210531	-540.9998954827786	878.4920800746324	194.7457321269509	-456.594398796211	nan	nan	nan	837.7918453271336	70.32342888300815	-535.6317196313429	876.3812992471427	54.33338920211699	-503.6232588542449	837.3629421596805	234.7155010380071	-381.801864829933	
